<svg width="32" height="32" viewBox="0 0 32 32" fill="none" xmlns="http://www.w3.org/2000/svg">
<path d="M19.9996 0L19.173 1.82667L17.333 2.66667L19.173 3.50667L19.9996 5.33333L20.8396 3.50667L22.6663 2.66667L20.8396 1.82667L19.9996 0ZM13.9996 2.66667L12.5463 5.88L9.33298 7.33333L12.5463 8.78667L13.9996 12L15.4663 8.78667L18.6663 7.33333L15.4663 5.88L13.9996 2.66667ZM25.1863 6.85333C23.413 6.74667 21.3863 7.53333 19.7863 9.12C17.6663 11.24 16.9996 14.1067 17.9463 16.1467L4.93298 29.16L6.81298 31.04L15.9996 21.88L25.173 31.0533L27.053 29.1733L17.8796 20L19.8396 18.04C21.8796 18.9867 24.7463 18.32 26.8663 16.2C29.413 13.6533 29.9063 10 27.9463 8.04C27.213 7.33333 26.2396 6.92 25.1863 6.85333ZM5.21298 7.33333C4.21477 8.33543 3.6543 9.69223 3.6543 11.1067C3.6543 12.5211 4.21477 13.8779 5.21298 14.88L10.7996 20.4533L14.573 16.6667L5.21298 7.33333Z" fill="#87512F"/>
</svg>
