<svg width="32" height="32" viewBox="0 0 32 32" fill="none" xmlns="http://www.w3.org/2000/svg">
<path d="M17.978 9.98225C18.8075 11.7936 18.3228 14.4281 16.5999 15.5406C14.7087 16.7618 12.1856 16.2186 10.9645 14.3274C10.836 14.1279 10.725 13.9175 10.6329 13.6987L0 18.3642V28.1032H28.121V19.5657C27.6464 19.2194 27.1976 18.6363 27.0329 17.7765C26.4986 17.4309 26.107 16.9039 25.9303 16.2926C25.0308 16.0974 24.2928 15.4538 23.9836 14.5937C22.9561 14.4038 22.1291 13.6298 21.8773 12.6233C21.0373 12.3862 20.4986 11.8827 20.2178 11.0739C19.4909 11.1086 18.6859 10.7883 17.978 9.98225ZM26.2893 25.8884H1.75925V24.39H26.2893V25.8884ZM26.2893 20.8953H1.75925V19.3347H26.2893V20.8953ZM16.1655 9.70969C15.8694 9.51844 15.6097 9.38669 15.2854 9.30856C15.197 8.92094 15.1049 8.53825 15.0539 8.28638C14.7129 6.59981 13.9478 4.95738 12.4216 4.05856C11.7139 3.63819 10.7614 4.0795 10.6503 4.90313C10.5569 5.59525 11.0118 5.94831 11.554 6.22006C12.6744 6.78175 13.3201 7.85306 13.7504 9.01544C13.7802 9.09588 13.8089 9.19438 13.84 9.30031C13.0936 9.47056 12.4104 9.9205 11.9622 10.6145C11.0514 12.025 11.4566 13.9069 12.8671 14.8177C14.2777 15.7285 16.1595 15.3234 17.0703 13.9129C17.9811 12.5023 17.576 10.6204 16.1655 9.70963M15.4294 11.8256C15.0092 11.8256 14.6687 11.4849 14.6687 11.0649C14.6687 10.6448 15.0093 10.3042 15.4293 10.3042C15.8494 10.3042 16.19 10.6448 16.19 11.0649C16.19 11.485 15.8494 11.8256 15.4294 11.8256ZM30.4953 19.473V28.103H28.8762V19.231C28.3037 18.8701 27.923 18.2325 27.923 17.5057L27.9231 17.5012C27.1291 17.274 26.5333 16.5774 26.4552 15.7308C25.4614 15.7069 24.6274 14.9728 24.4756 14.0159C23.3887 14.0159 22.4843 13.1655 22.4242 12.0936C21.5635 12.0152 20.8578 11.4018 20.6417 10.5888C20.5578 10.5993 20.4734 10.6047 20.3889 10.6049C19.263 10.6049 18.3503 9.69225 18.3503 8.56638C18.3503 7.4405 19.263 6.52788 20.3889 6.52788C21.3332 6.52788 22.1273 7.17013 22.3589 8.04163C22.4427 8.03106 22.527 8.02568 22.6115 8.0255C23.6984 8.0255 24.5864 8.87625 24.6465 9.94813C25.5775 10.033 26.3438 10.743 26.4886 11.6554C27.5504 11.6554 28.4387 12.467 28.5344 13.5039C29.6372 13.5304 30.5232 14.4321 30.5232 15.5413L30.5231 15.5461C31.3757 15.79 32 16.5747 32 17.5057C32 18.4468 31.3621 19.2384 30.4953 19.4731" fill="#87512F"/>
</svg>
