<svg width="32" height="32" viewBox="0 0 32 32" fill="none" xmlns="http://www.w3.org/2000/svg">
<path d="M8.87302 0.902408C6.2054 0.903533 3.6994 1.60428 2.5429 2.8516C0.627146 4.91772 2.62027 8.27597 1.1229 13.3555C0.584584 15.1818 5.75902 19.4764 8.75965 22.8321C8.57767 22.3374 8.55244 21.7986 8.6874 21.2891V21.2461L8.71677 21.1563C9.8139 17.8184 9.50977 16.0505 8.63865 13.3242C8.31402 12.3086 8.37465 11.3411 8.7499 10.5235C9.12515 9.70584 9.7874 9.04984 10.6015 8.53516C12.2296 7.50578 14.4886 6.99685 16.746 6.93166C17.0272 6.92333 17.3085 6.92204 17.5898 6.92778C19.0541 6.95853 20.4841 7.18235 21.7089 7.62903C21.3469 7.25153 20.9375 6.87135 20.4999 6.49028C17.8843 4.98072 10.7807 5.34078 7.49802 7.4981C9.56458 4.73397 14.6711 3.36097 19.0311 5.28516C18.5151 4.88122 17.985 4.48128 17.4608 4.08978C14.8913 2.54291 7.71021 2.89191 4.40427 5.06441C6.41646 2.37316 11.3124 0.99897 15.5936 2.70503C13.7966 1.46678 11.2701 0.901345 8.87302 0.902408ZM17.1718 8.09178C17.0408 8.09216 16.9103 8.09391 16.7793 8.09772C14.6811 8.15835 12.5805 8.66741 11.2265 9.52347C10.5495 9.95147 10.0656 10.4537 9.81046 11.0097C9.55515 11.5658 9.50152 12.1856 9.75171 12.9688C10.6386 15.7438 10.9737 17.9532 9.85527 21.42V21.4336L9.82602 21.5215C9.74496 21.7678 9.75083 22.2652 9.93915 22.6134C10.1276 22.9615 10.4204 23.2305 11.1735 23.2305C11.6298 23.2305 12.2352 23.2292 12.7966 23.2286C14.1614 22.1957 15.756 21.0297 16.9451 20.1055C17.5776 19.614 18.3685 19.5042 19.0779 19.5235C19.7873 19.5428 20.4159 19.6881 20.8631 19.9024C22.0957 20.4927 23.1804 20.8796 24.3006 21.1602C24.2917 21.0996 24.2793 21.0473 24.2654 21.0058C23.2515 18.0075 22.7585 15.3571 23.74 12.3985C23.995 11.6298 23.9419 11.0457 23.697 10.5332C23.4521 10.0208 22.9835 9.5626 22.3142 9.18366C21.143 8.52072 19.3898 8.13991 17.5642 8.09578C17.4334 8.09275 17.3026 8.0915 17.1717 8.09203L17.1718 8.09178ZM18.9433 20.6895C18.9089 20.6895 18.8755 20.6904 18.8417 20.6915C18.3685 20.7069 17.9265 20.8218 17.662 21.0275C16.1388 22.2112 13.9996 23.7593 12.5195 24.9142C12.2276 25.1418 12.133 25.3219 12.1092 25.416C12.0855 25.5104 12.0938 25.5513 12.16 25.6447C12.2923 25.8312 12.7719 26.0798 13.2479 26.0763C16.6681 26.051 19.3348 26.8698 21.5857 27.9532C22.8063 28.5407 24.3012 28.5608 25.7557 28.2071C27.2101 27.8533 28.6081 27.1252 29.5701 26.3203C30.5321 25.5155 30.9657 24.6572 30.8865 24.1992C30.8469 23.9702 30.7252 23.7623 30.3397 23.5332C29.954 23.3042 29.3044 23.0948 28.3591 22.9923C25.2722 22.6577 23.1121 22.2734 20.3591 20.9552C20.1511 20.8555 19.5939 20.7064 19.0466 20.6916C19.0122 20.6905 18.9777 20.6899 18.9431 20.6896L18.9433 20.6895ZM31.2089 26.3457C30.9519 26.6482 30.6499 26.9391 30.3202 27.215C29.2017 28.1508 27.6742 28.9428 26.0331 29.3418C24.3921 29.741 22.6218 29.748 21.08 29.006C18.9447 27.9782 16.4893 27.2203 13.2578 27.2442C12.7603 27.248 12.2716 27.1386 11.8632 26.9063C11.9826 27.9226 12.5935 28.7917 13.6972 28.7832C16.8986 28.7588 18.7799 29.5451 21.0605 30.379C24.6468 31.6903 31.2089 29.6545 31.2089 27.3087V26.3457V26.3457Z" fill="#87512F"/>
</svg>
