<svg width="32" height="30" viewBox="0 0 32 30" fill="none" xmlns="http://www.w3.org/2000/svg">
<path d="M12.6897 1.56117C12.1339 1.56481 11.5852 1.63887 11.0527 1.78811C10.5243 1.93635 10.0375 2.15121 9.59579 2.42485C10.0784 3.57457 11.3105 5.03403 12.7377 6.27991C14.2278 7.5808 15.9364 8.68606 17.0399 9.18452L17.0528 9.19037L17.0655 9.19641C18.0795 9.68479 18.7974 10.4534 19.2117 11.3013C19.4786 11.8473 19.634 12.4192 19.7247 13.0006C20.5372 12.4064 21.3937 11.9306 22.2644 11.5853C22.1982 10.5125 21.9464 9.38748 21.4879 8.26102C20.5263 5.89852 18.8467 3.99657 16.9445 2.83664C15.5773 2.00297 14.1102 1.55192 12.6897 1.56117ZM7.91423 4.03998C7.59467 4.50487 7.33261 5.02319 7.13348 5.5861C6.46848 7.46543 6.52242 9.82289 7.48411 12.1855C8.06611 13.6154 8.91142 14.8761 9.90973 15.9062C10.8932 16.1821 11.866 16.6083 12.7797 17.1866C13.4857 17.6335 14.1149 18.145 14.66 18.7014C14.838 18.7419 15.016 18.7765 15.1938 18.8037C15.5325 17.9753 15.9722 17.1511 16.514 16.3515C16.8418 15.8673 17.2011 15.4024 17.5897 14.9595C17.5942 14.6553 17.5915 14.3605 17.5761 14.0791C17.5342 13.318 17.4042 12.667 17.1661 12.1798C16.9281 11.6927 16.618 11.3524 16.0374 11.0728L16.063 11.0846C14.6331 10.4386 12.8475 9.25811 11.2042 7.82356C9.89798 6.68332 8.68623 5.40616 7.91423 4.03998ZM25.3987 11.9926C24.5545 11.9991 23.6615 12.1829 22.758 12.5345C20.8305 13.2846 18.8951 14.805 17.4636 16.9171C16.7313 17.9977 16.205 19.1244 15.8779 20.229C17.1622 22.2492 17.4777 24.5698 16.5524 26.5186C16.702 26.7189 16.869 26.9073 17.0515 27.0819C18.4043 25.9877 19.9633 25.0813 21.0713 24.1505C21.6769 23.6419 22.1355 23.1383 22.3903 22.6587C22.6451 22.179 22.7328 21.739 22.6003 21.1398L22.5925 21.1049L22.5874 21.0698C22.0841 17.6541 22.9671 15.6468 24.2539 14.4188C25.2887 13.4315 26.3187 12.9115 27.0292 12.2249C26.5159 12.065 25.9685 11.9882 25.3987 11.9926ZM28.9454 13.3961C27.906 14.6073 26.6245 15.1666 25.8589 15.8972C24.9792 16.7368 24.3719 17.7473 24.8142 20.7666C25.0272 21.7932 24.84 22.7791 24.4044 23.5992C23.9608 24.4339 23.2975 25.1128 22.5728 25.7215C21.472 26.6463 20.2022 27.4381 19.1399 28.2106C20.3446 28.504 21.7162 28.362 23.1127 27.8184C25.0402 27.0684 26.9757 25.5479 28.4071 23.4358C29.8387 21.3236 30.4846 19.035 30.3901 17.0805C30.3179 15.5858 29.8254 14.3051 28.9454 13.3962L28.9454 13.3961ZM24.8142 20.7666C24.8105 20.7482 24.8075 20.7298 24.8034 20.7114L24.8164 20.7813C24.8158 20.7764 24.8151 20.7715 24.8143 20.7666H24.8142ZM7.30029 16.5816C6.15136 16.5719 5.06904 16.8081 4.15811 17.2734C4.16436 17.2736 4.16979 17.274 4.17604 17.2742C4.71542 17.2921 5.39254 17.2324 6.17217 17.3322C6.95173 17.4321 7.86498 17.7639 8.55679 18.4978C9.24867 19.2316 9.72305 20.272 10.0535 21.7662L10.0613 21.801L10.0664 21.8363C10.2197 22.8788 10.928 23.4819 12.156 24.0465C13.2038 24.5283 14.549 24.8724 15.8259 25.2227C16.3977 22.8203 15.0409 19.8903 12.1502 18.0608C10.5916 17.0743 8.88311 16.595 7.30042 16.5816H7.30029ZM2.23292 19.0102C0.653545 21.5607 1.92017 25.3034 5.36454 27.4835C8.75361 29.6286 12.8512 29.3747 14.8233 27.1495C13.671 26.8417 12.3648 26.4921 11.1652 25.9405C9.61829 25.2292 8.14392 24.0339 7.84642 22.1775C7.56311 20.906 7.18454 20.2275 6.87079 19.8947C6.55579 19.5603 6.31017 19.479 5.86767 19.4224C5.42517 19.3657 4.81704 19.4062 4.09686 19.3824C3.53561 19.3639 2.87711 19.2884 2.23292 19.0102V19.0102ZM7.84648 22.1774C7.84786 22.1833 7.84923 22.1887 7.85054 22.1946L7.83761 22.1245C7.84023 22.1423 7.84367 22.1597 7.84654 22.1775L7.84648 22.1774Z" fill="#87512F"/>
</svg>
