<svg width="32" height="32" viewBox="0 0 32 32" fill="none" xmlns="http://www.w3.org/2000/svg">
<path d="M22.3705 11.1665C22.962 10.277 23.52 8.808 22.143 7.421C20.759 6.0285 21.679 4 21.679 4C21.679 4 18.772 6.6815 20.608 8.5305C21.6745 9.604 21.9395 10.4735 21.9395 11.0735C20.494 10.774 18.8865 10.5825 17.1735 10.5215C17.8705 9.2845 18.3485 7.4475 16.669 5.7045C14.824 3.79 16.052 1 16.052 1C16.052 1 12.1755 4.687 14.624 7.229C15.9255 8.58 16.3295 9.6925 16.3885 10.504C16.259 10.5025 16.1305 10.5 16 10.5C14.4435 10.5 12.959 10.608 11.5865 10.806C12.07 9.91 12.3465 8.634 11.142 7.421C9.758 6.029 10.6785 4 10.6785 4C10.6785 4 7.7715 6.6815 9.607 8.5305C10.5805 9.5105 10.884 10.3185 10.93 10.909C6.2285 11.7085 2.999 13.602 3 15.876C3.0015 15.995 3.0125 16.1135 3.0275 16.202C3.161 17.54 3.8205 22.185 6.7015 26.1255L6.1915 27.5255L9.7135 28.807C9.734 28.819 9.7565 28.83 9.777 28.8415C10.074 29.2235 10.519 29.649 11.189 30.0415C11.861 30.4345 13.46 31 15.999 31C18.539 31 20.139 30.4345 20.81 30.042C21.479 29.65 21.9235 29.2245 22.22 28.844C23.538 28.0765 24.5585 27.131 25.238 26.2125C28.169 22.256 28.837 17.55 28.9685 16.2275C28.9865 16.1115 28.9975 15.994 29 15.8535C29 13.8115 26.356 12.0715 22.3705 11.1665ZM10.429 24.0945V23.825C10.5663 23.8869 10.6752 23.9983 10.7342 24.1368C10.7933 24.2754 10.798 24.4311 10.7475 24.573C10.6883 24.7177 10.5753 24.8339 10.4323 24.8972C10.2893 24.9605 10.1273 24.9659 9.98039 24.9124C9.83345 24.8588 9.71296 24.7504 9.64419 24.61C9.57541 24.4695 9.5637 24.3079 9.6115 24.159C9.6389 24.0837 9.68111 24.0146 9.73564 23.9559C9.79017 23.8971 9.85592 23.8499 9.929 23.817V24.0945H10.429ZM27.999 15.8655C27.997 15.9449 27.9897 16.0241 27.977 16.1025C27.8485 17.3855 27.214 21.866 24.4345 25.617C23.055 27.4815 20.115 29.4735 16 29.4735C14.2785 29.4735 12.7655 29.122 11.4835 28.58L12.3275 26.2595L10.6175 23.162L10.429 23.2345V19.289C12.063 19.6385 13.965 19.841 15.999 19.841C21.304 19.841 25.7315 18.476 26.7685 16.6585C25.7315 14.842 21.304 13.476 15.999 13.476C10.694 13.476 6.2675 14.842 5.228 16.6585C5.8275 17.7065 7.558 18.6025 9.929 19.1745V23.428L7.3155 24.436L7.118 24.978C4.716 21.37 4.143 17.3125 4.019 16.075C4.00706 16.0017 4.00038 15.9277 3.999 15.8535C3.999 14.325 6.5565 12.722 10.707 11.9585C10.691 11.984 10.6785 12 10.6785 12L10.725 11.955C12.279 11.671 14.049 11.5 16 11.5C23.178 11.5 28 13.7505 28.0015 15.814L27.999 15.8655Z" fill="#87512F"/>
</svg>
