<svg width="32" height="32" viewBox="0 0 32 32" fill="none" xmlns="http://www.w3.org/2000/svg">
<path d="M23.9997 7.99984V5.33317H26.6663V2.6665H7.99967C6.53301 2.6665 5.33301 3.8665 5.33301 5.33317V26.6665C5.33301 28.1332 6.53301 29.3332 7.99967 29.3332H26.6663V26.6665H21.293C22.1307 26.0519 22.8121 25.249 23.2823 24.3226C23.7524 23.3961 23.9982 22.3721 23.9997 21.3332V14.6665H10.6663V21.3332C10.6663 23.5198 11.7463 25.4532 13.373 26.6665H7.99967V5.33317H10.6663V7.99984C10.6663 8.73317 11.2663 9.33317 11.9997 9.33317H22.6663C23.3997 9.33317 23.9997 8.73317 23.9997 7.99984ZM13.333 21.3332V17.3332H21.333V21.3332C21.333 23.5332 19.533 25.3332 17.333 25.3332C15.133 25.3332 13.333 23.5332 13.333 21.3332ZM17.333 10.6665C18.0663 10.6665 18.6663 11.2665 18.6663 11.9998C18.6663 12.7332 18.0663 13.3332 17.333 13.3332C16.5997 13.3332 15.9997 12.7332 15.9997 11.9998C15.9997 11.2665 16.5997 10.6665 17.333 10.6665Z" fill="#87512F"/>
</svg>
