<svg width="28" height="28" viewBox="0 0 28 28" fill="none" xmlns="http://www.w3.org/2000/svg">
<g clip-path="url(#clip0_1_529)">
<path fill-rule="evenodd" clip-rule="evenodd" d="M20.7309 19.3403C22.8489 19.0538 24.5687 17.2758 24.5704 15.3481L16.8332 16.4021C16.8739 18.3192 18.6178 19.6247 20.7309 19.3403ZM12.9653 16.931C10.8421 17.2198 9.19186 19 9.27236 20.8869L16.8888 19.8588C16.8481 17.96 15.0902 16.6414 12.9653 16.931Z" fill="#87512F"/>
<path fill-rule="evenodd" clip-rule="evenodd" d="M18.9674 6.08256C18.9496 5.96306 18.9259 5.8445 18.8965 5.72731L19.9207 5.74569L18.711 4.34919L19.5527 3.1815L17.6278 2.97937L17.4064 1.21319L16.135 1.98494L14.6129 0.875L14.5316 1.78938C14.2718 1.73735 14.0077 1.70996 13.7428 1.70756C12.8398 1.70756 12.019 2.02256 11.3702 2.61712C9.93781 3.93181 9.429 6.09219 9.42856 7.54338C9.42856 7.84788 9.45044 8.19438 9.51344 8.53825C4.7845 10.6343 0.875 13.2099 0.875 13.2099V27.125L27.125 23.7256V9.58562C27.125 8.05044 21.7748 6.45794 18.9674 6.08256ZM11.9648 3.25456C12.4814 2.78075 13.0992 2.57513 13.7432 2.57513C14.7687 2.57513 15.8607 3.09531 16.7173 3.88019C18.1073 5.15594 18.7408 7.021 17.402 8.25125C16.2579 9.30125 14.2603 9.76369 12.7299 9.76369C11.8396 9.76369 11.1068 9.60706 10.7922 9.31831C9.92906 8.526 10.1461 4.92362 11.9648 3.25456ZM25.1046 23.1122L1.75 26.1363V23.0956L25.1073 20.0174L25.1046 23.1122ZM25.1077 19.1419L1.75 22.2202V19.5978C2.352 20.8622 3.81238 21.6248 5.4635 21.4016C7.55606 21.119 9.18925 19.3616 9.10656 17.4567L1.75 18.4586V17.8605L25.1108 14.8676L25.1077 19.1419ZM25.1108 13.9926L1.75 16.9855V13.9702L25.1125 10.8977L25.1108 13.9926Z" fill="#87512F"/>
<path fill-rule="evenodd" clip-rule="evenodd" d="M12.4455 7.76129L12.757 8.05091L13.0685 7.76129L12.757 7.4721L12.4455 7.76129ZM17.5402 5.98635L17.2296 5.69673L16.9181 5.98635L17.2296 6.27554L17.5402 5.98635ZM16.0518 6.27554L15.7403 5.98635L15.4297 6.27554L15.7403 6.56516L16.0518 6.27554ZM14.3058 6.27554L14.6164 5.98635L14.3058 5.69673L13.9938 5.98635L14.3058 6.27554ZM16.264 4.8086L15.953 4.51941L15.6415 4.8086L15.953 5.09823L16.264 4.8086ZM15.3549 3.56698L15.0434 3.27735L14.7323 3.56698L15.0434 3.8566L15.3549 3.56698ZM13.9938 4.9276L14.3053 4.63798L13.9938 4.34835L13.6828 4.63798L13.9938 4.9276ZM12.7023 6.18541L13.0134 5.89623L12.7023 5.60616L12.3904 5.89623L12.7023 6.18541ZM14.0704 7.58148L14.3815 7.87066L14.6934 7.58148L14.3815 7.29185L14.0704 7.58148ZM16.9911 7.62741L16.6796 7.33735L16.3681 7.62741L16.6796 7.9166L16.9911 7.62741ZM15.4297 9.08079L15.7403 8.79116L15.4297 8.50154L15.1186 8.79116L15.4297 9.08079ZM13.0685 9.08079L13.38 9.36998L13.6915 9.08079L13.38 8.79116L13.0685 9.08079ZM11.1278 8.50154L11.4393 8.79116L11.7503 8.50154L11.4393 8.21235L11.1278 8.50154ZM11.5377 7.00223L11.2266 6.71304L10.916 7.00223L11.2266 7.29185L11.5377 7.00223ZM12.4958 4.14623L12.1839 3.8566L11.8724 4.14623L12.1839 4.43585L12.4958 4.14623ZM11.7503 5.47185L11.4393 5.18266L11.1282 5.47185L11.4393 5.76148L11.7503 5.47185ZM13.7808 3.19641L13.4693 2.90723L13.1582 3.19641L13.4693 3.48604L13.7808 3.19641Z" fill="#87512F"/>
</g>
<defs>
<clipPath id="clip0_1_529">
<rect width="28" height="28" fill="white"/>
</clipPath>
</defs>
</svg>
