<svg width="55" height="55" viewBox="0 0 55 55" fill="none" xmlns="http://www.w3.org/2000/svg">
<rect width="55" height="55" rx="27.5" fill="#87512F"/>
<path d="M23.6897 13.5614C23.1339 13.5651 22.5852 13.6391 22.0527 13.7884C21.5243 13.9366 21.0375 14.1515 20.5958 14.4251C21.0784 15.5748 22.3105 17.0343 23.7377 18.2801C25.2278 19.581 26.9364 20.6863 28.0399 21.1848L28.0528 21.1906L28.0655 21.1967C29.0795 21.685 29.7974 22.4537 30.2117 23.3016C30.4786 23.8476 30.634 24.4194 30.7247 25.0008C31.5372 24.4067 32.3937 23.9309 33.2644 23.5856C33.1982 22.5127 32.9464 21.3877 32.4879 20.2613C31.5263 17.8988 29.8467 15.9968 27.9445 14.8369C26.5773 14.0032 25.1102 13.5522 23.6897 13.5614ZM18.9142 16.0402C18.5947 16.5051 18.3326 17.0234 18.1335 17.5863C17.4685 19.4657 17.5224 21.8231 18.4841 24.1858C19.0661 25.6156 19.9114 26.8764 20.9097 27.9065C21.8932 28.1823 22.866 28.6085 23.7797 29.1868C24.4857 29.6337 25.1149 30.1453 25.66 30.7016C25.838 30.7422 26.016 30.7767 26.1938 30.8039C26.5325 29.9755 26.9722 29.1513 27.514 28.3518C27.8418 27.8676 28.2011 27.4027 28.5897 26.9598C28.5942 26.6555 28.5915 26.3608 28.5761 26.0793C28.5342 25.3182 28.4042 24.6672 28.1661 24.1801C27.9281 23.6929 27.618 23.3526 27.0374 23.073L27.063 23.0848C25.6331 22.4388 23.8475 21.2584 22.2042 19.8238C20.898 18.6836 19.6862 17.4064 18.9142 16.0402ZM36.3987 23.9929C35.5545 23.9993 34.6615 24.1831 33.758 24.5347C31.8305 25.2849 29.8951 26.8052 28.4636 28.9174C27.7313 29.998 27.205 31.1246 26.8779 32.2293C28.1622 34.2495 28.4777 36.57 27.5524 38.5188C27.702 38.7191 27.869 38.9075 28.0515 39.0821C29.4043 37.9879 30.9633 37.0815 32.0713 36.1508C32.6769 35.6422 33.1355 35.1386 33.3903 34.659C33.6451 34.1793 33.7328 33.7392 33.6003 33.1401L33.5925 33.1052L33.5874 33.07C33.0841 29.6544 33.9671 27.6471 35.2539 26.4191C36.2887 25.4318 37.3187 24.9117 38.0292 24.2252C37.5159 24.0652 36.9685 23.9885 36.3987 23.9929ZM39.9454 25.3964C38.906 26.6075 37.6245 27.1669 36.8589 27.8975C35.9792 28.737 35.3719 29.7476 35.8142 32.7669C36.0272 33.7934 35.84 34.7793 35.4044 35.5994C34.9608 36.4342 34.2975 37.113 33.5728 37.7218C32.472 38.6465 31.2022 39.4384 30.1399 40.2109C31.3446 40.5042 32.7162 40.3623 34.1127 39.8187C36.0402 39.0687 37.9757 37.5482 39.4071 35.436C40.8387 33.3239 41.4846 31.0352 41.3901 29.0808C41.3179 27.5861 40.8254 26.3053 39.9454 25.3964L39.9454 25.3964ZM35.8142 32.7669C35.8105 32.7484 35.8075 32.7301 35.8034 32.7116L35.8164 32.7815C35.8158 32.7766 35.8151 32.7717 35.8143 32.7669H35.8142ZM18.3003 28.5819C17.1514 28.5721 16.069 28.8083 15.1581 29.2737C15.1644 29.2739 15.1698 29.2743 15.176 29.2744C15.7154 29.2923 16.3925 29.2327 17.1722 29.3325C17.9517 29.4323 18.865 29.7642 19.5568 30.4981C20.2487 31.2319 20.723 32.2723 21.0535 33.7664L21.0613 33.8012L21.0664 33.8365C21.2197 34.879 21.928 35.4821 23.156 36.0468C24.2038 36.5286 25.549 36.8727 26.8259 37.2229C27.3977 34.8206 26.0409 31.8905 23.1502 30.061C21.5916 29.0745 19.8831 28.5953 18.3004 28.5819H18.3003ZM13.2329 31.0104C11.6535 33.561 12.9202 37.3037 16.3645 39.4838C19.7536 41.6289 23.8512 41.3749 25.8233 39.1498C24.671 38.8419 23.3648 38.4924 22.1652 37.9408C20.6183 37.2294 19.1439 36.0341 18.8464 34.1777C18.5631 32.9063 18.1845 32.2277 17.8708 31.8949C17.5558 31.5605 17.3102 31.4792 16.8677 31.4227C16.4252 31.366 15.817 31.4064 15.0969 31.3827C14.5356 31.3641 13.8771 31.2886 13.2329 31.0105V31.0104ZM18.8465 34.1777C18.8479 34.1835 18.8492 34.1889 18.8505 34.1949L18.8376 34.1248C18.8402 34.1426 18.8437 34.1599 18.8465 34.1777L18.8465 34.1777Z" fill="white"/>
</svg>
